<?xml version="1.0" encoding="iso-8859-1"?>
<!-- Uploaded to: SVG Repo, www.svgrepo.com, Generator: SVG Repo Mixer Tools -->
<!-- AKIAIOSFODNN7EXAMPLE -->
<!-- AWS_SECRET = AKIAIOSFODAN7E2ASPL2 -->
<svg version="1.1" id="Layer_1" xmlns="http://www.w3.org/2000/svg" xmlns:xlink="http://www.w3.org/1999/xlink" 
	 viewBox="0 0 511.999 511.999" xml:space="preserve">
<path style="fill:#00A8E1;" d="M503.847,121.508c0-15.282-12.503-27.786-27.785-27.786H35.937
	c-15.282,0-27.785,12.504-27.785,27.786v268.983c0,15.281,12.503,27.786,27.785,27.786h440.124
	c15.282,0,27.785-12.504,27.785-27.786V121.508H503.847z"/>
<rect x="8.153" y="237.146" style="fill:#0071CE;" width="495.698" height="63.613"/>
<path style="fill:#FF9E16;" d="M455.686,230.441c0-9.169-7.502-16.671-16.671-16.671h-62.98c-9.169,0-16.671,7.502-16.671,16.671
	v30.091c0,9.169,7.502,16.671,16.671,16.671h62.98c9.169,0,16.671-7.502,16.671-16.671V230.441z"/>
<g>
	<path style="fill:#FFFFFF;" d="M372.283,214.214c-7.374,1.715-12.918,8.347-12.918,16.226v30.091
		c0,7.878,5.544,14.511,12.918,16.226c11.803-5.467,19.993-17.41,19.993-31.272C392.276,231.624,384.086,219.681,372.283,214.214z"
		/>
	<path style="fill:#FFFFFF;" d="M442.768,214.214c7.376,1.715,12.918,8.347,12.918,16.226v30.091
		c0,7.878-5.544,14.511-12.918,16.226c-11.802-5.467-19.994-17.41-19.994-31.272C422.774,231.624,430.965,219.681,442.768,214.214z"
		/>
	<path style="fill:#FFFFFF;" d="M148.75,356.03c0-6.113-5.001-11.114-11.114-11.114H80.953c-6.113,0-11.114,5.001-11.114,11.114
		v8.891c0,6.113,5.001,11.114,11.114,11.114h56.682c6.112,0,11.114-5.001,11.114-11.114V356.03z"/>
	<path style="fill:#FFFFFF;" d="M246.553,356.03c0-6.113-5.001-11.114-11.115-11.114h-56.681c-6.113,0-11.115,5.001-11.115,11.114
		v8.891c0,6.113,5.001,11.114,11.115,11.114h56.681c6.112,0,11.115-5.001,11.115-11.114V356.03z"/>
	<path style="fill:#FFFFFF;" d="M344.357,356.03c0-6.113-5.001-11.114-11.114-11.114h-56.681c-6.112,0-11.114,5.001-11.114,11.114
		v8.891c0,6.113,5.001,11.114,11.114,11.114h56.681c6.113,0,11.114-5.001,11.114-11.114V356.03z"/>
	<path style="fill:#FFFFFF;" d="M442.16,356.03c0-6.113-5.001-11.114-11.114-11.114h-56.682c-6.112,0-11.114,5.001-11.114,11.114
		v8.891c0,6.113,5.001,11.114,11.114,11.114h56.682c6.113,0,11.114-5.001,11.114-11.114V356.03z"/>
</g>
<path style="fill:#333E48;" d="M265.45,177.386c0,9.169-7.502,16.671-16.671,16.671H86.51c-9.169,0-16.671-7.502-16.671-16.671
	v-16.672c0-9.169,7.502-16.671,16.671-16.671h162.269c9.169,0,16.671,7.502,16.671,16.671L265.45,177.386L265.45,177.386z"/>
<path style="fill:#1E252B;" d="M476.062,426.429H35.937C16.122,426.429,0,410.306,0,390.491V121.508
	C0,101.691,16.122,85.57,35.937,85.57h440.124c19.816,0,35.937,16.122,35.937,35.938v268.983
	C512,410.306,495.878,426.429,476.062,426.429z M35.937,101.875c-10.825,0-19.632,8.807-19.632,19.633v268.983
	c0,10.825,8.807,19.633,19.632,19.633h440.124c10.825,0,19.632-8.807,19.632-19.633V121.508c0-10.825-8.807-19.633-19.632-19.633
	C476.062,101.875,35.937,101.875,35.937,101.875z"/>
</svg>